<?xml version="1.0" encoding="utf-8"?>
<!-- Generator: Adobe Illustrator 16.0.0, SVG Export Plug-In . SVG Version: 6.00 Build 0)  -->
<!DOCTYPE svg PUBLIC "-//W3C//DTD SVG 1.1//EN" "http://www.w3.org/Graphics/SVG/1.1/DTD/svg11.dtd">
<svg version="1.1" id="Layer_1" xmlns="http://www.w3.org/2000/svg" xmlns:xlink="http://www.w3.org/1999/xlink" x="0px" y="0px"
	 width="667.74px" height="153.542px" viewBox="0 0 667.74 153.542" enable-background="new 0 0 667.74 153.542"
	 xml:space="preserve">
<rect x="124.169" y="53.376" fill="#991B1E" width="8.231" height="47.194"/>
<rect x="203.72" y="53.376" fill="#991B1E" width="8.231" height="47.194"/>
<rect x="35.661" y="53.376" fill="#991B1E" width="8.231" height="47.194"/>
<rect x="150.687" y="33.14" fill="#991B1E" width="8.23" height="87.541"/>
<rect x="177.203" y="33.14" fill="#991B1E" width="8.231" height="87.541"/>
<rect x="9.144" y="33.14" fill="#991B1E" width="8.231" height="87.541"/>
<rect x="455.792" y="53.376" fill="#991B1E" width="8.23" height="47.194"/>
<rect x="623.851" y="53.376" fill="#991B1E" width="8.23" height="47.194"/>
<rect x="535.343" y="53.376" fill="#991B1E" width="8.23" height="47.194"/>
<rect x="482.309" y="33.14" fill="#991B1E" width="8.23" height="87.541"/>
<rect x="508.827" y="33.14" fill="#991B1E" width="8.232" height="87.541"/>
<rect x="650.366" y="33.14" fill="#991B1E" width="8.23" height="87.541"/>
<path fill="#81C341" d="M415.673,62.571c-0.01,0.015-0.02,0.029-0.029,0.044l0.029,0.045V62.571z"/>
<path fill="#046799" d="M4.206,153.458c38.453-1.229,60.835-33.431,79.825-62.724l0.066-0.099c-0.021-0.031-0.043-0.063-0.065-0.095
	l-7.081-10.291c-0.729-1.123-1.463-2.266-2.2-3.416l-6.543,9.816C51.811,111.633,31.832,137.104,0,136.393v17.068
	C1.386,153.496,2.784,153.503,4.206,153.458z"/>
<path fill="#339967" d="M583.841,62.724l9.318,13.896c18.266-27.059,39.625-58.543,74.58-59.577v-17.05
	C628.48,0.886,604.156,32.88,583.841,62.724z"/>
<path fill="#81C341" d="M415.748,62.771l-0.074-0.11v0.218C415.699,62.843,415.722,62.807,415.748,62.771z"/>
<path fill="#046799" d="M408.591,80.298c-0.727-1.119-1.457-2.254-2.191-3.396c-17.498,27.691-37.285,59.236-72.519,59.571
	c-35.138-0.333-55.049-31.851-72.573-59.492c-3.125-4.928-6.173-9.733-9.218-14.216l-0.002-0.051
	c-0.146-0.226-0.294-0.452-0.441-0.678c-19.413-29.907-42.455-62.108-81.873-62.085c-40.278-0.023-65.004,32.494-85.616,62.773
	l9.318,13.897c19.393-28.729,42.272-62.456,81.209-59.419c32.644,2.545,51.427,32.717,67.979,59.093
	c3.174,5.058,6.268,9.977,9.36,14.534c0.021,0.031,0.043,0.064,0.064,0.096c19.303,29.773,42.316,62.06,81.293,62.591v0.023
	c0.155,0,0.306-0.011,0.461-0.012c0.181,0.001,0.356,0.014,0.538,0.014v-0.027c39.089-0.531,61.954-32.902,81.292-62.732
	l0.064-0.095L408.591,80.298z"/>
<path fill="#339967" d="M242.665,76.295c-6.54,10.451-12.934,20.552-19.637,29.214c-16.145,20.863-37.948,35.191-65.301,29.777
	c-26.189-5.182-43.333-28.16-57.644-48.813l-6.606-9.853l-9.318-13.897l-4.183-6.238C60.881,27.472,37.285-0.744,0-0.02v17.068
	c2.135-0.066,4.316-0.023,6.552,0.149c33.224,2.552,51.832,34.088,68.198,59.636c0.737,1.15,1.471,2.293,2.2,3.416l7.081,10.291
	c0.021,0.031,0.043,0.063,0.065,0.095c20.082,29.513,44.108,61.601,83.16,62.821c40.957,1.278,64.72-31.679,84.769-62.626
	C248.933,86.271,245.839,81.353,242.665,76.295z"/>
<path fill="#046799" d="M657.408,135.286c-26.189-5.182-43.332-28.16-57.643-48.813l-6.605-9.854l-9.318-13.896l-4.184-6.238
	c-19.65-29.857-44.063-58.877-83.26-56.376c-37.793,2.412-61.084,33.911-80.65,62.661l6.807,10.289
	c0.836,1.234,1.68,2.488,2.527,3.752l6.625-9.838c17.826-25.725,40.01-52.429,74.527-49.777
	c33.223,2.552,51.83,34.087,68.199,59.636c0.736,1.15,1.471,2.293,2.199,3.416l7.08,10.291c0.021,0.031,0.045,0.063,0.066,0.096
	c20.082,29.513,44.109,61.6,83.158,62.82c0.271,0.009,0.533-0.001,0.803,0.004v-17.042
	C664.388,136.35,660.945,135.986,657.408,135.286z"/>
<path fill="#339967" d="M583.712,90.54l-7.08-10.291c-0.729-1.123-1.463-2.266-2.199-3.416l-6.545,9.816
	c-17.336,26.414-38.666,53.393-73.785,49.375c-32.545-3.724-52.107-34.011-69.021-59.213c-0.848-1.264-1.691-2.518-2.527-3.752
	l-6.807-10.289c-0.025,0.036-0.049,0.072-0.074,0.107V62.66l-0.029-0.045l-4.025-6.083C393.23,28.593,370.611,0.521,334.382,0.023
	V0.001c-0.185,0-0.364,0.008-0.548,0.01C333.682,0.01,333.535,0,333.382,0v0.019c-38.386,0.505-61.624,30.661-81.735,62.018
	c0.146,0.226,0.295,0.452,0.441,0.678l0.002,0.051c3.045,4.482,6.094,9.288,9.218,14.216c17.31-26.938,36.926-59.56,72.574-59.904
	c35.611,0.344,55.221,32.901,72.518,59.825c0.734,1.143,1.465,2.277,2.191,3.396l7.146,10.39l4.438,6.452
	c20.15,29.021,45.279,57.546,83.713,56.318c38.451-1.229,60.834-33.431,79.824-62.724l0.066-0.098
	C583.757,90.604,583.734,90.571,583.712,90.54z"/>
<path id="path2834" fill="#010101" d="M288.831,51.401l-0.173,0.173v1.707c0,0.469,0.222,0.716,0.692,0.716
	c2.228,0.235,3.733,0.702,4.524,1.434c0.82,0.705,1.616,2.103,2.35,4.155l23.466,49.058c0.498,1.407,1.171,2.126,2.051,2.126
	s1.614-0.719,2.201-2.126l9.496-19.683l9.42,19.683c0.496,1.407,1.197,2.126,2.076,2.126c0.881,0,1.588-0.719,2.178-2.126
	l23.465-48.662c0.732-1.904,1.66-3.359,2.744-4.326c1.084-0.998,2.736-1.54,4.994-1.658c0.498,0,0.768-0.247,0.768-0.716v-1.707
	l-0.197-0.173l-8.309,0.173c-2.346,0-5.641-0.057-9.891-0.173l-0.174,0.173v1.707c0,0.469,0.248,0.716,0.717,0.716l1.434,0.074
	c1.818,0.089,3.082,0.504,3.783,1.237c0.734,0.703,0.789,1.874,0.174,3.486l-19.236,39.438h-0.348l-9.246-18.298l9.617-19.954
	c0.734-1.904,1.635-3.359,2.721-4.326c1.084-0.998,2.762-1.54,5.02-1.658c0.498,0,0.742-0.247,0.742-0.716v-1.707l-0.174-0.173
	l-8.309,0.173c-2.346,0-5.641-0.057-9.891-0.173l-0.173,0.173v1.707c0,0.469,0.224,0.716,0.692,0.716l1.459,0.074
	c1.818,0.089,3.08,0.504,3.783,1.237c0.734,0.703,0.789,1.874,0.174,3.486l-8.036,16.467l-8.655-17.086
	c-0.498-1.349-0.498-2.271,0-2.77c0.528-0.527,1.871-0.941,3.981-1.235l1.533-0.174c0.469-0.088,0.692-0.335,0.692-0.716v-1.707
	l-0.173-0.173l-10.237,0.173c-2.346,0-5.868-0.057-10.558-0.173l-0.173,0.173v1.707c0,0.469,0.222,0.716,0.692,0.716
	c2.228,0.235,3.732,0.702,4.524,1.434c0.82,0.705,1.616,2.103,2.35,4.155l11.72,24.503l-6.899,14.145h-0.347l-20.275-40.058
	c-0.498-1.349-0.498-2.271,0-2.77c0.528-0.527,1.846-0.941,3.957-1.235l1.558-0.174c0.469-0.088,0.692-0.335,0.692-0.716v-1.707
	l-0.173-0.173l-10.237,0.173C297.042,51.574,293.52,51.518,288.831,51.401z"/>
</svg>
